<svg width="914" height="400" fill="none" xmlns="http://www.w3.org/2000/svg"><path fill="#fff" d="M0 0h914v400H0z"/><path d="M434.749 198.153c3.06 0 5.304-1.717 5.627-4.335l-1.87-.017c-.306 1.666-1.751 2.754-3.757 2.754-2.567 0-4.165-1.734-4.165-4.743 0-3.026 1.598-4.743 4.165-4.743 2.023 0 3.417 1.105 3.757 2.686h1.87c-.374-2.601-2.567-4.284-5.627-4.284-3.638 0-6.069 2.414-6.069 6.341 0 3.91 2.414 6.341 6.069 6.341Zm11.278 0c2.703 0 4.386-1.887 4.386-4.641 0-2.856-1.768-4.641-4.386-4.641-2.72 0-4.403 1.887-4.403 4.658 0 2.822 1.768 4.624 4.403 4.624Zm0-1.462c-1.598 0-2.618-1.156-2.618-3.162 0-2.074 1.054-3.213 2.618-3.213 1.615 0 2.601 1.173 2.601 3.196 0 2.04-1.037 3.179-2.601 3.179Zm9.275 1.462c1.513 0 2.635-.782 3.06-1.938h.102l.068 1.785h1.683v-12.393h-1.751v5.168h-.102c-.425-1.156-1.547-1.921-3.06-1.921-2.193 0-3.672 1.632-3.672 4.641 0 3.009 1.479 4.658 3.672 4.658Zm.612-1.445c-1.496 0-2.482-1.105-2.482-3.213 0-2.125.986-3.213 2.482-3.213 1.666 0 2.533 1.326 2.533 2.703v1.02c0 1.394-.867 2.703-2.533 2.703Zm10.324 1.445c2.125 0 3.757-1.156 3.995-2.924h-1.666c-.221.935-1.122 1.53-2.329 1.53-1.564 0-2.584-1.054-2.618-2.907h6.664c.272-2.822-1.156-4.981-4.114-4.981-2.635 0-4.284 1.836-4.284 4.675 0 2.771 1.649 4.607 4.352 4.607Zm-.085-7.905c1.326 0 2.363.697 2.414 2.363h-4.913c.136-1.462 1.088-2.363 2.499-2.363Zm9.203 7.922c2.346 0 3.808-.884 3.808-2.72 0-2.057-1.564-2.465-3.434-2.72-1.53-.204-2.21-.476-2.21-1.36 0-.765.646-1.292 1.836-1.292 1.156 0 1.887.493 1.904 1.581h1.717c-.034-1.751-1.377-2.822-3.587-2.822-2.176 0-3.621.986-3.621 2.703 0 1.836 1.411 2.312 3.451 2.601 1.513.221 2.159.459 2.159 1.462 0 .833-.68 1.326-1.972 1.326-1.258 0-2.159-.527-2.159-1.751h-1.734c0 1.785 1.377 2.992 3.842 2.992Zm5.628 2.669h1.751v-4.607h.102c.442 1.156 1.564 1.921 3.06 1.921 2.193 0 3.672-1.632 3.672-4.641 0-3.009-1.479-4.658-3.672-4.658-1.496 0-2.618.782-3.06 1.921h-.102l-.068-1.768h-1.683v11.832Zm4.301-4.131c-1.666 0-2.533-1.309-2.533-2.703v-1.003c0-1.394.867-2.703 2.533-2.703 1.496 0 2.499 1.088 2.499 3.213 0 2.108-1.003 3.196-2.499 3.196Zm9.198 1.445c1.513 0 2.635-.782 3.06-1.938h.102V198h1.751v-8.993h-1.683l-.068 1.768h-.102c-.425-1.156-1.547-1.921-3.06-1.921-2.193 0-3.672 1.632-3.672 4.641 0 3.009 1.479 4.658 3.672 4.658Zm.612-1.445c-1.496 0-2.482-1.105-2.482-3.213 0-2.125.986-3.213 2.482-3.213 1.666 0 2.533 1.326 2.533 2.703v1.02c0 1.394-.867 2.703-2.533 2.703Zm10.274 1.445c2.244 0 3.876-1.326 4.012-3.366h-1.7c-.136 1.139-1.003 1.904-2.312 1.904-1.564 0-2.584-1.139-2.584-3.162 0-1.921.935-3.196 2.601-3.196 1.156 0 2.057.612 2.261 1.785h1.7c-.136-1.938-1.734-3.247-3.91-3.247-2.703 0-4.437 1.853-4.437 4.641 0 2.788 1.734 4.641 4.369 4.641Zm9.359 0c2.125 0 3.757-1.156 3.995-2.924h-1.666c-.221.935-1.122 1.53-2.329 1.53-1.564 0-2.584-1.054-2.618-2.907h6.664c.272-2.822-1.156-4.981-4.114-4.981-2.635 0-4.284 1.836-4.284 4.675 0 2.771 1.649 4.607 4.352 4.607Zm-.085-7.905c1.326 0 2.363.697 2.414 2.363h-4.913c.136-1.462 1.088-2.363 2.499-2.363Zm9.203 7.922c2.346 0 3.808-.884 3.808-2.72 0-2.057-1.564-2.465-3.434-2.72-1.53-.204-2.21-.476-2.21-1.36 0-.765.646-1.292 1.836-1.292 1.156 0 1.887.493 1.904 1.581h1.717c-.034-1.751-1.377-2.822-3.587-2.822-2.176 0-3.621.986-3.621 2.703 0 1.836 1.411 2.312 3.451 2.601 1.513.221 2.159.459 2.159 1.462 0 .833-.68 1.326-1.972 1.326-1.258 0-2.159-.527-2.159-1.751h-1.734c0 1.785 1.377 2.992 3.842 2.992ZM429.519 213h4.309c3.162 0 5.022-2.232 5.022-5.642s-1.86-5.658-5.022-5.658h-4.309V213Zm.961-.868v-9.579h3.255c2.511 0 4.123 1.705 4.123 4.789 0 2.992-1.565 4.79-4.123 4.79h-3.255Zm13.483.992c1.814 0 3.224-.992 3.472-2.542h-.899c-.248 1.069-1.224 1.751-2.573 1.751-1.705 0-2.805-1.178-2.852-3.239h6.355c.217-2.418-1.007-4.294-3.534-4.294-2.325 0-3.735 1.674-3.735 4.185 0 2.496 1.457 4.139 3.766 4.139Zm-.046-7.533c1.457 0 2.604.759 2.666 2.681h-5.441c.155-1.674 1.209-2.681 2.775-2.681Zm6.957 7.409h1.085l2.991-8.091h-.992l-2.015 5.657-.511 1.566h-.047l-.527-1.566-2.03-5.657h-.992l3.038 8.091Zm8.25.124c1.922 0 3.317-1.132 3.472-2.899h-.899c-.139 1.271-1.147 2.093-2.573 2.093-1.736 0-2.883-1.256-2.883-3.333 0-2.015 1.085-3.379 2.898-3.379 1.287 0 2.31.698 2.527 1.953h.899c-.186-1.643-1.55-2.759-3.379-2.759-2.356 0-3.875 1.69-3.875 4.185 0 2.48 1.519 4.139 3.813 4.139Zm8.429 0c2.309 0 3.828-1.69 3.828-4.154 0-2.511-1.55-4.17-3.828-4.17-2.341 0-3.86 1.705-3.86 4.185 0 2.48 1.55 4.139 3.86 4.139Zm-.016-.806c-1.782 0-2.914-1.302-2.914-3.333 0-2.108 1.178-3.379 2.93-3.379 1.798 0 2.883 1.318 2.883 3.364 0 2.077-1.163 3.348-2.899 3.348Zm5.597.682h.899v-4.325c0-1.782 1.085-3.084 2.743-3.084 1.519 0 2.248.899 2.248 2.852V213h.914v-4.728c0-2.511-1.24-3.472-2.914-3.472-1.271 0-2.402.636-2.929 1.876h-.062l-.047-1.752h-.852V213Zm10.834 0h1.457v-.791h-1.193c-.589 0-.76-.155-.76-.759v-5.766h1.953v-.76h-1.953v-2.635l-.899.155v2.48h-1.627v.76h1.627v5.936c0 .946.372 1.38 1.395 1.38Zm5.571.124c1.472 0 2.542-.775 2.945-1.922h.062V213h.914v-8.076h-.868l-.046 1.767h-.062c-.403-1.147-1.473-1.906-2.945-1.906-2 0-3.364 1.534-3.364 4.169 0 2.62 1.364 4.17 3.364 4.17Zm.263-.791c-1.612 0-2.681-1.224-2.681-3.379 0-2.185 1.069-3.394 2.681-3.394 1.752 0 2.728 1.395 2.728 2.867v1.039c0 1.488-.976 2.867-2.728 2.867Zm6.011-8.85h.914V201.7h-.914v1.783Zm0 9.517h.914v-8.076h-.914V213Zm3.251 0h.899v-4.325c0-1.782 1.085-3.084 2.743-3.084 1.519 0 2.248.899 2.248 2.852V213h.914v-4.728c0-2.511-1.24-3.472-2.914-3.472-1.271 0-2.402.636-2.929 1.876h-.062l-.047-1.752h-.852V213Zm12.24.124c1.814 0 3.224-.992 3.472-2.542h-.899c-.248 1.069-1.224 1.751-2.573 1.751-1.705 0-2.805-1.178-2.852-3.239h6.355c.217-2.418-1.007-4.294-3.534-4.294-2.325 0-3.735 1.674-3.735 4.185 0 2.496 1.457 4.139 3.766 4.139Zm-.046-7.533c1.457 0 2.604.759 2.666 2.681h-5.441c.155-1.674 1.209-2.681 2.775-2.681Zm5.327 7.409h.899v-5.038c.108-1.441 1.116-2.263 2.495-2.263.171 0 .357 0 .481.016v-.868a4.076 4.076 0 0 0-.481-.031c-1.147 0-2.123.62-2.48 1.674h-.046l-.062-1.566h-.806V213Zm7.887.155c1.907 0 3.147-.806 3.147-2.325 0-1.705-1.271-2.093-2.945-2.341-1.581-.217-2.294-.542-2.294-1.519 0-.883.744-1.488 2.077-1.488 1.255 0 2.092.527 2.108 1.798h.899c-.016-1.55-1.116-2.511-3.007-2.511-1.798 0-2.992.884-2.992 2.294 0 1.504 1.101 1.954 2.992 2.217 1.565.232 2.232.542 2.232 1.627 0 .977-.775 1.535-2.186 1.535-1.41 0-2.371-.62-2.371-1.953h-.899c0 1.596 1.162 2.666 3.239 2.666Zm-105.835-26.257h-6.047l-9.774 9.774v-9.774h-18.597v4.659h13.957v5.396h-12.094v4.447h12.094v5.959h-13.957V212h18.597v-9.299l.123.123.176.176.071.07.105.106a.824.824 0 0 0 .123.105l8.666 8.666h.018l.052.053h6.487l-12.551-12.551 12.551-12.551Z" fill="#333"/></svg>